<?xml version="1.0" standalone="no"?><!DOCTYPE svg PUBLIC "-//W3C//DTD SVG 1.1//EN" "http://www.w3.org/Graphics/SVG/1.1/DTD/svg11.dtd"><svg width="200" height="200" viewBox="0 0 200 200" version="1.1" xmlns="http://www.w3.org/2000/svg" xmlns:xlink="http://www.w3.org/1999/xlink"><defs><style type="text/css"><![CDATA[
@font-face { font-family: ifont; src: url(http://at.alicdn.com/t/font_1442373896_4754455.eot?#iefix) format(embedded-opentype), url(http://at.alicdn.com/t/font_1442373896_4754455.woff) format(woff), url(http://at.alicdn.com/t/font_1442373896_4754455.ttf) format(truetype), url(http://at.alicdn.com/t/font_1442373896_4754455.svg#ifont) format(svg); }

]]></style></defs><g class="transform-group"><g transform="scale(0.1953125, 0.1953125)"><path d="M579.8656 511.932416c-11.669504 0-23.344128 10.836992-23.344128 24.177664 0 10.83904 11.66848 21.67808 23.344128 21.67808 17.514496 0 30.019584-10.83904 30.019584-21.67808C609.885184 522.770432 597.380096 511.932416 579.8656 511.932416L579.8656 511.932416zM503.153664 399.36c18.343936 0 30.019584-11.669504 30.019584-29.185024 0-18.34496-11.674624-29.182976-30.019584-29.182976-17.5104 0-34.188288 10.83904-34.188288 29.182976C468.964352 387.69152 485.643264 399.36 503.153664 399.36L503.153664 399.36zM512.325632 0.560128c-282.65472 0-511.788032 229.133312-511.788032 511.788032 0 282.652672 229.133312 511.785984 511.788032 511.785984 282.652672 0 511.785984-229.133312 511.785984-511.785984C1024.11264 229.69344 794.979328 0.560128 512.325632 0.560128L512.325632 0.560128zM415.601664 642.008064c-30.855168 0-53.368832-4.999168-82.552832-13.340672l-84.217856 42.529792 24.185856-71.714816c-59.203584-41.688064-94.22848-94.221312-94.22848-158.42816 0-113.40288 106.732544-200.123392 236.814336-200.123392 115.068928 0 217.632768 68.376576 237.643776 165.105664-8.337408-1.672192-15.844352-2.501632-22.513664-2.501632-113.40288 0-200.953856 85.049344-200.953856 187.613184 0 17.508352 2.501632 33.350656 6.67136 50.030592C429.778944 642.008064 422.272 642.008064 415.601664 642.008064L415.601664 642.008064zM763.3152 723.724288l16.673792 60.040192-63.371264-35.854336c-24.179712 4.999168-47.52896 12.505088-71.708672 12.505088-111.736832 0-200.123392-76.711936-200.123392-171.768832 0-95.05792 88.387584-171.77088 200.123392-171.77088 105.895936 0 200.953856 76.71296 200.953856 171.77088C845.862912 642.008064 810.008576 689.537024 763.3152 723.724288L763.3152 723.724288zM338.05312 340.992c-17.5104 0-35.854336 10.83904-35.854336 29.182976 0 17.51552 18.343936 29.190144 35.854336 29.190144 16.678912 0 30.019584-11.674624 30.019584-29.190144C368.072704 351.83104 354.732032 340.992 338.05312 340.992L338.05312 340.992zM710.782976 511.932416c-12.510208 0-23.349248 10.836992-23.349248 24.177664 0 10.83904 10.83904 21.67808 23.349248 21.67808 16.673792 0 29.182976-10.83904 29.182976-21.67808C739.965952 522.770432 727.456768 511.932416 710.782976 511.932416L710.782976 511.932416zM710.782976 511.932416" fill="#11cd6e"></path></g></g></svg>