<?xml version="1.0" standalone="no"?><!DOCTYPE svg PUBLIC "-//W3C//DTD SVG 1.1//EN" "http://www.w3.org/Graphics/SVG/1.1/DTD/svg11.dtd">
<svg width="200" height="200" viewBox="0 0 200 200" version="1.1" xmlns="http://www.w3.org/2000/svg" xmlns:xlink="http://www.w3.org/1999/xlink">
<defs><style type="text/css"><![CDATA[
@font-face { font-family: ifont; src: url(http://at.alicdn.com/t/font_1442373896_4754455.eot?#iefix) format(embedded-opentype), url(http://at.alicdn.com/t/font_1442373896_4754455.woff) format(woff), url(http://at.alicdn.com/t/font_1442373896_4754455.ttf) format(truetype), url(http://at.alicdn.com/t/font_1442373896_4754455.svg#ifont) format(svg); }
]]></style>
</defs>
    <g class="transform-group">
        <g transform="scale(0.1953125, 0.1953125)">
            <path transform="scale(0.8) translate(140, 140)" d="M660.768 289.824c4.16-7.136 4.16-19.136 0-26.336-6.304-10.944-20.512-14.88-40.032-14.88-1.6 0-2.88 0-2.88 0L279.392 248.608l-13.44 0c-30.112 0-43.584 14.528-43.584 28.8 0 9.312 5.6 17.664 15.328 22.656 7.328 3.744 16.864 10.08 28.256 10.08L620.8 310.144C640.256 310.144 654.432 300.736 660.768 289.824zM222.304 402.336c0 9.28 5.536 19.392 15.2 24.416 7.328 3.744 16.8 6.464 28.128 6.464l272.576 0 4.576-6.528c8.448-9.12 17.28-18.912 26.272-25.984l34.976-29.056L265.632 371.648C235.68 371.68 222.304 388.064 222.304 402.336zM812.48 376.576c8.672 4.192 18.464 8.736 26.464 13.952L864 405.952 864 129.536C864 80.384 820.128 64 792.256 64l0 0L146.656 64 146.528 64C118.752 64 64 80.384 64 129.536l0 729.792c0 49.536 54.848 66.208 82.624 66.208l0 0 645.6 0 0 0c50.752 0 71.744-39.072 71.744-66.208l0-65.344-36.064-33.088-25.472 11.904 0 87.04c0 0.032 0.448 1.952-2.144 4.608C798.688 866.144 796.384 864 792.256 864L146.624 864c-3.04 0-21.088 6.048-21.088-4.672L125.536 129.536c0-2.56 9.6-4 21.088-4l645.6 0c4.288 0 10.208-5.312 10.208 4l0 242.848L812.48 376.576zM952.224 754.4l-109.248-106.592c16.704-26.08 26.368-56.832 26.368-89.76 0-94.112-78.752-170.4-175.872-170.4-97.088 0-175.84 76.288-175.84 170.4 0 94.112 78.752 170.4 175.84 170.4 41.92 0 80.416-14.208 110.624-37.952l106.688 104.064c5.728 5.536 15.008 5.536 20.736 0l20.736-20.096C957.952 768.928 957.952 759.936 952.224 754.4L952.224 754.4zM566.496 559.104c0-68.288 57.12-123.616 127.584-123.616 70.464 0 127.584 55.328 127.584 123.616 0 68.288-57.12 123.616-127.584 123.616C623.616 682.72 566.496 627.36 566.496 559.104L566.496 559.104zM810.72 786.752" fill="#ffffff">
            </path>
            <text x="480" y="1000" style="text-anchor:middle; word-space:10px;font-size:180px;stroke:none; fill:white;font-family:serif;font-weight:900">点击查看</text>
        </g>
    </g>
</svg>